<svg width="1600" height="1600" viewBox="0 0 1600 1600" fill="none" xmlns="http://www.w3.org/2000/svg">
  <rect width="1600" height="1600" fill="transparent"/>
  <g opacity="0.28">
    <polygon points="450,340 512,214 604,240 626,330 564,402 486,392" fill="#16202E"/>
    <polygon points="1150,340 1088,214 996,240 974,330 1036,402 1114,392" fill="#141C28"/>
    <polygon points="800,254 918,278 1018,348 1082,454 1096,590 1046,704 962,790 852,842 748,842 638,790 554,704 504,590 518,454 582,348 682,278" fill="#F7FAFC"/>
    <polygon points="682,278 582,348 518,454 430,468 356,416 372,320 450,340 512,214 604,240" fill="#DEE6EF"/>
    <polygon points="918,278 1018,348 1082,454 1170,468 1244,416 1228,320 1150,340 1088,214 996,240" fill="#D4DDE8"/>
    <polygon points="518,454 504,590 446,644 376,620 338,548 350,486 430,468" fill="#C6D0DD"/>
    <polygon points="1082,454 1096,590 1154,644 1224,620 1262,548 1250,486 1170,468" fill="#BEC9D7"/>
    <polygon points="504,590 554,704 532,824 448,814 388,744 376,620 446,644" fill="#111827"/>
    <polygon points="1096,590 1046,704 1068,824 1152,814 1212,744 1224,620 1154,644" fill="#1F2937"/>
    <polygon points="554,704 638,790 626,938 526,908 490,850 532,824" fill="#172131"/>
    <polygon points="1046,704 962,790 974,938 1074,908 1110,850 1068,824" fill="#243142"/>
    <polygon points="638,790 748,842 800,892 852,842 962,790 974,938 910,1048 800,1104 690,1048 626,938" fill="#FBFDFF"/>

    <polygon points="560,432 646,402 734,436 758,522 706,602 616,612 548,552 534,480" fill="#111827"/>
    <polygon points="1040,432 954,402 866,436 842,522 894,602 984,612 1052,552 1066,480" fill="#111827"/>
    <polygon points="646,402 726,388 800,404 874,388 954,402 900,450 800,474 700,450" fill="#EEF4F8"/>
    <polygon points="594,478 650,454 702,484 688,544 630,568 582,536" fill="#253243"/>
    <polygon points="1006,478 950,454 898,484 912,544 970,568 1018,536" fill="#253243"/>
    <polygon points="640,500 670,488 696,506 688,536 658,548 634,528" fill="#F8FBFD"/>
    <polygon points="960,500 930,488 904,506 912,536 942,548 966,528" fill="#F8FBFD"/>

    <polygon points="694,548 800,510 906,548 884,646 800,692 716,646" fill="#F8FBFD"/>
    <polygon points="736,576 800,556 864,576 850,628 800,652 750,628" fill="#DCE4EC"/>
    <polygon points="770,612 800,588 830,612 818,654 800,680 782,654" fill="#111827"/>
    <polygon points="748,666 800,680 852,666 830,706 800,724 770,706" fill="#1B2736"/>
    <polygon points="736,708 770,706 800,724 830,706 864,708 824,748 800,756 776,748" fill="#E9EEF4"/>
    <polygon points="730,724 776,748 748,786 700,774 688,742" fill="#D8E0E9"/>
    <polygon points="870,724 824,748 852,786 900,774 912,742" fill="#E3E9F0"/>

    <polygon points="694,548 716,646 652,700 586,686 560,620 616,612" fill="#16212F"/>
    <polygon points="906,548 884,646 948,700 1014,686 1040,620 984,612" fill="#253243"/>
    <polygon points="652,700 716,646 748,706 726,778 658,806 606,768" fill="#202C3C"/>
    <polygon points="948,700 884,646 852,706 874,778 942,806 994,768" fill="#2A3747"/>

    <polygon points="690,1048 646,1160 704,1256 800,1300 896,1256 954,1160 910,1048 800,1104" fill="#F7FAFC"/>
    <polygon points="526,908 626,938 690,1048 600,1088 496,1048 470,966" fill="#D8E0E9"/>
    <polygon points="1074,908 974,938 910,1048 1000,1088 1104,1048 1130,966" fill="#E4EAF1"/>
    <polygon points="600,1088 690,1048 704,1256 612,1228 546,1166" fill="#C0CBD8"/>
    <polygon points="1000,1088 910,1048 896,1256 988,1228 1054,1166" fill="#CBD5E1"/>
    <polygon points="398,256 358,166 434,126 512,214 450,340" fill="#1D2938"/>
    <polygon points="1202,256 1242,166 1166,126 1088,214 1150,340" fill="#151E2B"/>
    <polygon points="626,938 690,1048 646,1160 586,1094 572,1000" fill="#101823"/>
    <polygon points="974,938 910,1048 954,1160 1014,1094 1028,1000" fill="#1C2634"/>
    <polygon points="748,842 800,892 852,842 800,820" fill="#E8EEF4"/>
    <polygon points="744,410 800,384 856,410 800,404" fill="#F8FBFD"/>
    <polygon points="704,1256 800,1300 896,1256 870,1350 800,1392 730,1350" fill="#EEF3F7"/>
  </g>
</svg>
